<svg xmlns="http://www.w3.org/2000/svg" width="100" height="100" fill="none" viewBox="0 0 100 100"><circle cx="56" cy="53" r="40" fill="#ADABEF"/><circle cx="51" cy="50" r="40" fill="#514DFC"/><circle cx="40.5" cy="48.5" r="6.5" stroke="#fff" stroke-width="2"/><path stroke="#fff" stroke-width="2" d="M49 69.5V70H26V69.5C26 63.1487 31.1487 58 37.5 58C43.8513 58 49 63.1487 49 69.5Z"/><path stroke="#fff" stroke-width="2" d="M54.3478 45.8607L52.2155 46.4038L54.4515 42.9268L54.3478 45.8607Z"/><rect width="23" height="28" x="55" y="23" stroke="#fff" stroke-width="2" rx="4"/><rect width="16" height="2" x="59" y="26" fill="#fff" rx="1"/><rect width="16" height="2" x="59" y="30" fill="#fff" rx="1"/><rect width="16" height="2" x="59" y="34" fill="#fff" rx="1"/><rect width="16" height="2" x="59" y="46" fill="#fff" rx="1"/><rect width="8" height="2" x="59" y="38" fill="#fff" rx="1"/><rect width="7" height="2" x="68" y="38" fill="#fff" rx="1"/><rect width="4" height="2" x="71" y="42" fill="#fff" rx="1"/><rect width="11" height="2" x="59" y="42" fill="#fff" rx="1"/></svg>